<?xml version="1.0" encoding="UTF-8"?>
<svg viewBox="0 0 1027 615" xmlns="http://www.w3.org/2000/svg" xmlns:xlink="http://www.w3.org/1999/xlink">
<defs>
  <path id="e" d="m78.25 117.25c0 2.762-2.238 5-5 5h-67.5c-2.761 0-5-2.238-5-5v-111.5c0-2.762 2.239-5 5-5h67.5c2.762 0 5 2.238 5 5v111.5z" fill="#fff" stroke="#000" stroke-width="1.5"/>
  <path id="d" d="m2.159-0.864s2.375-1.9 2.375-4.534c0-1.542-1.369-4.102-4.534-4.102s-4.534 2.561-4.534 4.102c0 2.634 2.375 4.534 2.375 4.534-2.638-2.055-7.341-0.652-7.341 3.455 0 2.056 1.68 4.318 4.318 4.318 3.165 0 4.534-3.455 4.534-3.455s0.402 3.938-1.943 6.046h5.182c-2.345-2.107-1.943-6.046-1.943-6.046s1.369 3.455 4.534 3.455c2.639 0 4.318-2.263 4.318-4.318 0-4.107-4.703-5.51-7.341-3.455z"/>
  <path id="i" d="m1.137-.455c0,0 1.25-1 1.25-2.386 0-.812-.722-2.159-2.387-2.159s-2.386,1.348-2.386,2.159c0,1.386 1.25,2.386 1.25,2.386-1.389-1.081-3.864-.343-3.864,1.818 0,1.082.884,2.273 2.273,2.273 1.666,0 2.386-1.818 2.386-1.818s.211,2.072-1.023,3.182h2.727c-1.234-1.109-1.022-3.182-1.022-3.182s.721,1.818 2.387,1.818c1.389,0 2.272-1.191 2.272-2.273 0-2.161-2.476-2.899-3.863-1.818z"/>
  <path id="c" d="m3.529-5.011c-2.117-2.864-3.529-5.489-3.529-5.489s-1.412 2.625-3.529 5.489-4.471 5.011-4.471 5.011 2.353 2.147 4.471 5.012 3.529 5.488 3.529 5.488 1.412-2.625 3.529-5.488 4.471-5.012 4.471-5.012-2.353-2.148-4.471-5.011z" fill="#df0000"/>
  <path id="h" d="m1.985-2.625c-1.191-1.5-1.985-2.875-1.985-2.875s-.794,1.375-1.985,2.875-2.515,2.625-2.515,2.625 1.324,1.125 2.515,2.625 1.985,2.875 1.985,2.875 .794-1.375 1.985-2.875 2.515-2.625 2.515-2.625-1.323-1.125-2.515-2.625z" fill="#df0000"/>
  <path id="b" d="m3.676-9c-3.243,0-3.676,3.477-3.676,3.477s-.433-3.477-3.676-3.477c-2.27,0-4.324,1.559-4.324,4.5 0,3.886 7.191,10.689 8,13.5 .813-2.814 8-9.614 8-13.5 0-2.941-2.054-4.5-4.324-4.5z" fill="#df0000"/>
  <path id="g" d="m2.067-5c-1.824,0-2.067,1.932-2.067,1.932s-.243-1.932-2.067-1.932c-1.277,0-2.433.866-2.433,2.5 0,2.159 4.045,5.938 4.5,7.5 .458-1.563 4.5-5.341 4.5-7.5 0-1.634-1.155-2.5-2.433-2.5z" fill="#df0000"/>
  <path id="a" d="m7.989,3.103c-.242-4.057-7.747-11.693-7.989-13.603-.242,1.909-7.747,9.545-7.989,13.603-.169,2.868 1.695,4.057 3.39,4.057 2.421,0 3.147-2.625 3.389-3.341 0-.239.484-.239.484,0 .242.716-1.603,6.682-2.179,6.682h5.811c-.576,0-2.421-5.966-2.179-6.682 0-.239.485-.239.485,0 .242.716.968,3.341 3.389,3.341 1.694-.001 3.557-1.189 3.388-4.057z"/>
  <path id="f" d="m4.494,1.625c-.137-2.125-4.358-6.125-4.494-7.125-.136,1-4.358,5-4.494,7.125-.095,1.503.954,2.125 1.907,2.125 1.362,0 1.771-1.375 1.907-1.75 0-.125.272-.125.272,0 .136.375-.902,3.5-1.226,3.5h3.268c-.323,0-1.361-3.125-1.226-3.5 0-.125.273-.125.273,0 .136.375.544,1.75 1.906,1.75 .954,0 2.002-.622 1.907-2.125z"/>
  <g id="v" fill="none">
   <path d="m3 17.75h3.5"/>
   <path d="m12 17.75h-3.5"/>
   <path d="m4.5 17.75 3-13.25 3 13.25"/>
   <path d="m5.25 14.5h4.5"/>
  </g>
  <g id="t" fill="none">
   <path d="m90.25 15.5v2.25h-7.5v-1.25c0-3.25 7.5-3.75 7.5-7.75 0-2.75-1.25-3.5-3.75-3.5s-3.75 1.5-3.75 3"/>
  </g>
  <g id="s" fill="none">
   <path d="m161.75 7.5v-2.25h6.75v0.75l-5 5.25s1-0.5 2.5-0.5 3.25 1.25 3.25 3.25-1.5 3.75-3.75 3.75c-1.75 0-3.25-1-3.75-2.5"/>
  </g>
  <g id="r" fill="none">
   <path d="m245 17.75h4"/>
   <path d="m247,17.75v-12.5h-.75l-5.5,9v.5h8.25"/>
  </g>
  <g id="q" fill="none">
   <path d="m327.25 5.25h-7v5.25l0.7 0.25s0.47-1.5 2.8-1.5 3.27 2.25 3.27 4.5-1.4 4-3.5 4-3.03-1.5-3.27-2.25"/>
  </g>
  <g id="p" fill="none">
   <path d="m405.75 14a3.25 3.25 0 1 0 -6.5 0 3.25 3.25 0 1 0 6.5 0"/>
   <path d="m399.25 14v-5.5s-0.25-3.25 3.23-3.25c1.08 0 2.8 0.5 3.02 2.25"/>
  </g>
  <g id="o" fill="none">
   <path d="m477.75,7.5v-2.25h6.5l.75.75c-2.25,2.75-4.25,7.75-4.25,12.5"/>
  </g>
  <g id="n" fill="none">
   <path d="m564 14.25a3.5 3.5 0 1 0 -7 0 3.5 3.5 0 1 0 7 0"/>
   <path d="m563.5 7.75a3 3 0 1 0 -6 0 3 3 0 1 0 6 0"/>
  </g>
  <g id="m" fill="none">
   <path d="m642.75 9v5.5s0.25 3.25-3.23 3.25c-1.08 0-2.8-0.5-3.02-2.25"/>
   <path d="m642.75 9a3.25 3.25 0 1 0 -6.5 0 3.25 3.25 0 1 0 6.5 0"/>
  </g>
  <g id="u" fill="none">
   <path d="m722.25,15.6c0,1.19-1.01,2.15-2.25,2.15s-2.25-.96-2.25-2.15v-8.2c0-1.19 1.01-2.15 2.25-2.15s2.25.96 2.25,2.15v8.2z"/>
   <path d="m714.75 4.75v13.5"/>
  </g>
  <g id="l" fill="none">
   <path d="m793.75 14.75v0.25s-0.25 2.75 3 2.75 3-2.75 3-2.75v-9"/>
   <path d="m802 5.25h-4.5"/>
  </g>
  <g id="j" fill="none">
   <path d="m872 12.5c6 0 5 5 9 5"/>
   <path d="m879.25 11.5c0-3.45 0-6.25-2.75-6.25s-2.75 2.8-2.75 6.25 0 6.25 2.75 6.25 2.75-2.8 2.75-6.25z"/>
  </g>
  <g id="k" fill="none">
   <path d="m951 5.25h4"/>
   <path d="m956 5.25h4"/>
   <path d="m951 17.75h4"/>
   <path d="m956 17.75h4"/>
   <path d="m958.75 5-6 8.25"/>
   <path d="m958.75 18-3.75-7.75"/>
   <path d="m952.75 4.5v14"/>
  </g>
  <g id="ai" fill="none">
   <path d="m73.75 108.5h-4.5"/>
   <path d="m76 105.25h-3.5"/>
   <path d="m67 105.25h3.5"/>
   <path d="m74.5 105.25-3 13.25-3-13.25"/>
  </g>
  <g id="ag" fill="none">
   <path d="m146.75 107.5v-2.25h7.5v1.25c0 3.25-7.5 3.75-7.5 7.75 0 2.75 1.25 3.5 3.75 3.5s3.75-1.5 3.75-3"/>
  </g>
  <g id="af" fill="none">
   <path d="m233.25 115.5v2.25h-6.75v-0.75l5-5.25s-1 0.5-2.5 0.5-3.25-1.25-3.25-3.25 1.5-3.75 3.75-3.75c1.75 0 3.25 1 3.75 2.5"/>
  </g>
  <g id="ae" fill="none">
   <path d="m306,105.25v12.5h.75l5.5-9v-.5h-8.25"/>
   <path d="m308 105.25h-4"/>
  </g>
  <g id="ad" fill="none">
   <path d="m383.75 117.75h7v-5.25l-0.7-0.25s-0.47 1.5-2.8 1.5-3.27-2.25-3.27-4.5 1.4-4 3.5-4 3.03 1.5 3.27 2.25"/>
  </g>
  <g id="ac" fill="none">
   <path d="m469.75 109v5.5s0.25 3.25-3.23 3.25c-1.08 0-2.8-0.5-3.02-2.25"/>
   <path d="m469.75 109a3.25 3.25 0 1 0 -6.5 0 3.25 3.25 0 1 0 6.5 0"/>
  </g>
  <g id="ab" fill="none">
   <path d="m549.25,115.5v2.25h-6.5l-.75-.75c2.25-2.75 4.25-7.75 4.25-12.5"/>
  </g>
  <g id="aa" fill="none">
   <path d="m627.5 115.25a3 3 0 1 0 -6 0 3 3 0 1 0 6 0"/>
   <path d="m628 108.75a3.5 3.5 0 1 0 -7 0 3.5 3.5 0 1 0 7 0"/>
  </g>
  <g id="z" fill="none">
   <path d="m706.75 114a3.25 3.25 0 1 0 -6.5 0 3.25 3.25 0 1 0 6.5 0"/>
   <path d="m700.25 114v-5.5s-0.25-3.25 3.23-3.25c1.08 0 2.8 0.5 3.02 2.25"/>
  </g>
  <g id="ah" fill="none">
   <path d="m786.25 118.25v-13.5"/>
   <path d="m778.75,107.4c0-1.19 1.01-2.15 2.25-2.15s2.25.96 2.25,2.15v8.2c0,1.19-1.01,2.15-2.25,2.15s-2.25-.96-2.25-2.15v-8.2z"/>
  </g>
  <g id="y" fill="none">
   <path d="m865.25 108.25v-0.25s0.25-2.75-3-2.75-3 2.75-3 2.75v9"/>
   <path d="m857 117.75h4.5"/>
  </g>
  <g id="w" fill="none">
   <path d="m937.75 111.5c0 3.45 0 6.25 2.75 6.25s2.75-2.8 2.75-6.25 0-6.25-2.75-6.25-2.75 2.8-2.75 6.25z"/>
   <path d="m945 110.5c-6 0-5-5-9-5"/>
  </g>
  <g id="x" fill="none">
   <path d="m1024 117.75h-4"/>
   <path d="m1019 117.75h-4"/>
   <path d="m1024 105.25h-4"/>
   <path d="m1022.2 118.5v-14"/>
   <path d="m1016.2 118 6-8.25"/>
   <path d="m1016.2 105 3.75 7.75"/>
   <path d="m1019 105.25h-4"/>
  </g>
 </defs> <use x="474" y="369" xlink:href="#e"/>
 <use x="1" y="368.5" stroke="#000" xlink:href="#o"/>
 <use x="-1" y="369.5" stroke="#000" xlink:href="#ab"/>
 <use transform="translate(482.5,393.5)" xlink:href="#f"/>
 <use transform="matrix(-1,0,0,-1,544.5,467.5)" xlink:href="#f"/>
 <use transform="translate(497.5,390.5)" xlink:href="#a"/>
 <use transform="translate(497.5,430.5)" xlink:href="#a"/>
 <use transform="matrix(-1,0,0,-1,497.5,470.5)" xlink:href="#a"/>
 <use transform="translate(513.5,410.5)" xlink:href="#a"/>
 <use transform="translate(529.5,390.5)" xlink:href="#a"/>
 <use transform="translate(529.5,430.5)" xlink:href="#a"/>
 <use transform="matrix(-1,0,0,-1,529.5,470.5)" xlink:href="#a"/>
</svg>